<?xml version="1.0" encoding="UTF-8" standalone="no"?>
<!DOCTYPE svg PUBLIC "-//W3C//DTD SVG 1.1//EN"
 "http://www.w3.org/Graphics/SVG/1.1/DTD/svg11.dtd">
<!-- Generated by graphviz version 2.38.0 (20140413.2041)
 -->
<!-- Title: G Pages: 1 -->
<svg width="590pt" height="183pt"
 viewBox="0.00 0.00 590.00 183.03" xmlns="http://www.w3.org/2000/svg" xmlns:xlink="http://www.w3.org/1999/xlink">
<g id="graph0" class="graph" transform="scale(0.84346 0.84346) rotate(0) translate(4 213)">
<title>G</title>
<polygon fill="none" stroke="none" points="-4,4 -4,-213 695.5,-213 695.5,4 -4,4"/>
<!-- I -->
<!-- 0 -->
<g id="node2" class="node"><title>0</title>
<ellipse fill="#fdedd3" stroke="black" cx="56" cy="-95" rx="18" ry="18"/>
<text text-anchor="middle" x="56" y="-91.3" font-family="Lato" font-size="14.00">0</text>
</g>
<!-- I&#45;&gt;0 -->
<g id="edge1" class="edge"><title>I&#45;&gt;0</title>
<path fill="none" stroke="black" d="M1.15491,-95C2.79388,-95 17.1543,-95 30.6317,-95"/>
<polygon fill="black" stroke="black" points="37.9419,-95 30.9419,-98.1501 34.4419,-95 30.9419,-95.0001 30.9419,-95.0001 30.9419,-95.0001 34.4419,-95 30.9418,-91.8501 37.9419,-95 37.9419,-95"/>
</g>
<!-- 0&#45;&gt;0 -->
<g id="edge2" class="edge"><title>0&#45;&gt;0</title>
<path fill="none" stroke="black" d="M49.6208,-112.037C48.3189,-121.858 50.4453,-131 56,-131 60.166,-131 62.4036,-125.858 62.7128,-119.143"/>
<polygon fill="black" stroke="black" points="62.3792,-112.037 65.8541,-118.882 62.5434,-115.533 62.7076,-119.03 62.7076,-119.03 62.7076,-119.03 62.5434,-115.533 59.561,-119.177 62.3792,-112.037 62.3792,-112.037"/>
<text text-anchor="start" x="31.5" y="-134.8" font-family="Lato" font-size="14.00">!l1 &amp; !l2</text>
</g>
<!-- 1 -->
<g id="node3" class="node"><title>1</title>
<ellipse fill="#fdedd3" stroke="black" cx="542" cy="-126" rx="18" ry="18"/>
<ellipse fill="none" stroke="black" cx="542" cy="-126" rx="22" ry="22"/>
<text text-anchor="middle" x="542" y="-122.3" font-family="Lato" font-size="14.00">1</text>
</g>
<!-- 0&#45;&gt;1 -->
<g id="edge3" class="edge"><title>0&#45;&gt;1</title>
<path fill="none" stroke="black" d="M65.4848,-110.469C82.022,-138.312 121.419,-194 172,-194 172,-194 172,-194 423.5,-194 461.958,-194 499.127,-166.374 521.026,-146.339"/>
<polygon fill="black" stroke="black" points="526.256,-141.43 523.307,-148.518 523.704,-143.826 521.152,-146.221 521.152,-146.221 521.152,-146.221 523.704,-143.826 518.996,-143.924 526.256,-141.43 526.256,-141.43"/>
<text text-anchor="start" x="274" y="-197.8" font-family="Lato" font-size="14.00">l1 &amp; l2</text>
</g>
<!-- 4 -->
<g id="node4" class="node"><title>4</title>
<ellipse fill="#fdedd3" stroke="black" cx="173" cy="-95" rx="18" ry="18"/>
<text text-anchor="middle" x="173" y="-91.3" font-family="Lato" font-size="14.00">4</text>
</g>
<!-- 0&#45;&gt;4 -->
<g id="edge4" class="edge"><title>0&#45;&gt;4</title>
<path fill="none" stroke="black" d="M74.466,-95C93.9985,-95 125.767,-95 147.712,-95"/>
<polygon fill="black" stroke="black" points="154.746,-95 147.746,-98.1501 151.246,-95 147.746,-95.0001 147.746,-95.0001 147.746,-95.0001 151.246,-95 147.746,-91.8501 154.746,-95 154.746,-95"/>
<text text-anchor="start" x="92" y="-98.8" font-family="Lato" font-size="14.00">!l1 &amp; l2</text>
</g>
<!-- 2 -->
<g id="node5" class="node"><title>2</title>
<ellipse fill="#fdedd3" stroke="black" cx="422.5" cy="-18" rx="18" ry="18"/>
<text text-anchor="middle" x="422.5" y="-14.3" font-family="Lato" font-size="14.00">2</text>
</g>
<!-- 0&#45;&gt;2 -->
<g id="edge5" class="edge"><title>0&#45;&gt;2</title>
<path fill="none" stroke="black" d="M72.4674,-86.8583C99.3949,-73.0842 156.99,-45.3796 209,-32 263.568,-17.9625 278.742,-21.1159 335,-18 355.992,-16.8373 379.894,-16.9463 397.245,-17.2838"/>
<polygon fill="black" stroke="black" points="404.252,-17.4394 397.184,-20.4332 400.753,-17.3617 397.254,-17.2839 397.254,-17.2839 397.254,-17.2839 400.753,-17.3617 397.324,-14.1347 404.252,-17.4394 404.252,-17.4394"/>
<text text-anchor="start" x="209" y="-35.8" font-family="Lato" font-size="14.00">l1 &amp; !l2</text>
</g>
<!-- 1&#45;&gt;1 -->
<g id="edge6" class="edge"><title>1&#45;&gt;1</title>
<path fill="none" stroke="black" d="M531.288,-145.344C529.289,-156.098 532.859,-166 542,-166 548.998,-166 552.732,-160.195 553.2,-152.648"/>
<polygon fill="black" stroke="black" points="552.712,-145.344 556.321,-152.119 552.945,-148.837 553.178,-152.329 553.178,-152.329 553.178,-152.329 552.945,-148.837 550.035,-152.539 552.712,-145.344 552.712,-145.344"/>
<text text-anchor="start" x="521.5" y="-169.8" font-family="Lato" font-size="14.00">l1 &amp; l2</text>
</g>
<!-- 3 -->
<g id="node6" class="node"><title>3</title>
<ellipse fill="#fdedd3" stroke="black" cx="667" cy="-126" rx="18" ry="18"/>
<text text-anchor="middle" x="667" y="-122.3" font-family="Lato" font-size="14.00">3</text>
</g>
<!-- 1&#45;&gt;3 -->
<g id="edge7" class="edge"><title>1&#45;&gt;3</title>
<path fill="none" stroke="black" d="M564.144,-126C585.62,-126 618.849,-126 641.469,-126"/>
<polygon fill="black" stroke="black" points="648.701,-126 641.701,-129.15 645.201,-126 641.701,-126 641.701,-126 641.701,-126 645.201,-126 641.701,-122.85 648.701,-126 648.701,-126"/>
<text text-anchor="start" x="582" y="-129.8" font-family="Lato" font-size="14.00">!l1 &amp; !l2</text>
</g>
<!-- 4&#45;&gt;1 -->
<g id="edge13" class="edge"><title>4&#45;&gt;1</title>
<path fill="none" stroke="black" d="M188.479,-104.646C194.596,-108.351 201.93,-112.328 209,-115 235.744,-125.107 243.619,-124.55 272,-128 373.491,-140.337 400.13,-140.659 502,-132 505.577,-131.696 509.324,-131.265 513.021,-130.772"/>
<polygon fill="black" stroke="black" points="520.013,-129.763 513.534,-133.88 516.549,-130.263 513.084,-130.763 513.084,-130.763 513.084,-130.763 516.549,-130.263 512.635,-127.645 520.013,-129.763 520.013,-129.763"/>
<text text-anchor="start" x="339" y="-140.8" font-family="Lato" font-size="14.00">l1 &amp; l2</text>
</g>
<!-- 4&#45;&gt;4 -->
<g id="edge14" class="edge"><title>4&#45;&gt;4</title>
<path fill="none" stroke="black" d="M163.187,-110.167C160.213,-120.664 163.484,-131 173,-131 180.285,-131 183.91,-124.941 183.875,-117.39"/>
<polygon fill="black" stroke="black" points="182.813,-110.167 186.948,-116.634 183.322,-113.629 183.831,-117.092 183.831,-117.092 183.831,-117.092 183.322,-113.629 180.715,-117.55 182.813,-110.167 182.813,-110.167"/>
<text text-anchor="start" x="148.5" y="-134.8" font-family="Lato" font-size="14.00">!l1 &amp; !l2</text>
</g>
<!-- 5 -->
<g id="node7" class="node"><title>5</title>
<ellipse fill="#fdedd3" stroke="black" cx="294.5" cy="-97" rx="18" ry="18"/>
<ellipse fill="none" stroke="black" cx="294.5" cy="-97" rx="22" ry="22"/>
<text text-anchor="middle" x="294.5" y="-93.3" font-family="Lato" font-size="14.00">5</text>
</g>
<!-- 4&#45;&gt;5 -->
<g id="edge15" class="edge"><title>4&#45;&gt;5</title>
<path fill="none" stroke="black" d="M191.121,-95.2866C210.455,-95.6101 242.214,-96.1417 265.239,-96.527"/>
<polygon fill="black" stroke="black" points="272.381,-96.6465 265.329,-99.6789 268.881,-96.5879 265.382,-96.5293 265.382,-96.5293 265.382,-96.5293 268.881,-96.5879 265.435,-93.3797 272.381,-96.6465 272.381,-96.6465"/>
<text text-anchor="start" x="209" y="-99.8" font-family="Lato" font-size="14.00">l1 &amp; !l2</text>
</g>
<!-- 2&#45;&gt;1 -->
<g id="edge8" class="edge"><title>2&#45;&gt;1</title>
<path fill="none" stroke="black" d="M438.314,-27.1873C454.827,-37.8113 481.852,-56.3714 502,-76 510.073,-83.8647 517.926,-93.4353 524.444,-102.09"/>
<polygon fill="black" stroke="black" points="528.729,-107.902 522.04,-104.137 526.652,-105.085 524.575,-102.268 524.575,-102.268 524.575,-102.268 526.652,-105.085 527.111,-100.399 528.729,-107.902 528.729,-107.902"/>
<text text-anchor="start" x="461" y="-79.8" font-family="Lato" font-size="14.00">l1 &amp; l2</text>
</g>
<!-- 2&#45;&gt;4 -->
<g id="edge10" class="edge"><title>2&#45;&gt;4</title>
<path fill="none" stroke="black" d="M404.355,-19.3762C367.039,-22.9255 276.4,-34.5797 209,-68 203.268,-70.8424 197.557,-74.6973 192.461,-78.6036"/>
<polygon fill="black" stroke="black" points="186.798,-83.1553 190.281,-76.3147 189.526,-80.9627 192.254,-78.77 192.254,-78.77 192.254,-78.77 189.526,-80.9627 194.227,-81.2253 186.798,-83.1553 186.798,-83.1553"/>
<text text-anchor="start" x="272" y="-47.8" font-family="Lato" font-size="14.00">!l1 &amp; l2</text>
</g>
<!-- 2&#45;&gt;2 -->
<g id="edge9" class="edge"><title>2&#45;&gt;2</title>
<path fill="none" stroke="black" d="M412.687,-33.1666C409.713,-43.6641 412.984,-54 422.5,-54 429.785,-54 433.41,-47.9413 433.375,-40.39"/>
<polygon fill="black" stroke="black" points="432.313,-33.1666 436.448,-39.6341 432.822,-36.6294 433.331,-40.0922 433.331,-40.0922 433.331,-40.0922 432.822,-36.6294 430.215,-40.5503 432.313,-33.1666 432.313,-33.1666"/>
<text text-anchor="start" x="398" y="-57.8" font-family="Lato" font-size="14.00">!l1 &amp; !l2</text>
</g>
<!-- 3&#45;&gt;1 -->
<g id="edge11" class="edge"><title>3&#45;&gt;1</title>
<path fill="none" stroke="black" d="M651.689,-116.134C645.598,-112.507 638.237,-108.838 631,-107 609.892,-101.64 603.221,-102.106 582,-107 577.266,-108.092 572.442,-109.839 567.874,-111.843"/>
<polygon fill="black" stroke="black" points="561.404,-114.916 566.376,-109.068 564.565,-113.414 567.727,-111.913 567.727,-111.913 567.727,-111.913 564.565,-113.414 569.078,-114.758 561.404,-114.916 561.404,-114.916"/>
<text text-anchor="start" x="586" y="-110.8" font-family="Lato" font-size="14.00">l1 &amp; l2</text>
</g>
<!-- 3&#45;&gt;3 -->
<g id="edge12" class="edge"><title>3&#45;&gt;3</title>
<path fill="none" stroke="black" d="M656.849,-141.167C653.772,-151.664 657.156,-162 667,-162 674.537,-162 678.287,-155.941 678.25,-148.39"/>
<polygon fill="black" stroke="black" points="677.151,-141.167 681.318,-147.614 677.678,-144.627 678.204,-148.087 678.204,-148.087 678.204,-148.087 677.678,-144.627 675.09,-148.561 677.151,-141.167 677.151,-141.167"/>
<text text-anchor="start" x="642.5" y="-165.8" font-family="Lato" font-size="14.00">!l1 &amp; !l2</text>
</g>
<!-- 5&#45;&gt;1 -->
<g id="edge16" class="edge"><title>5&#45;&gt;1</title>
<path fill="none" stroke="black" d="M316.431,-99.4725C360.548,-104.684 463.106,-116.799 512.887,-122.679"/>
<polygon fill="black" stroke="black" points="520.122,-123.534 512.801,-125.841 516.646,-123.123 513.17,-122.712 513.17,-122.712 513.17,-122.712 516.646,-123.123 513.54,-119.584 520.122,-123.534 520.122,-123.534"/>
<text text-anchor="start" x="402" y="-117.8" font-family="Lato" font-size="14.00">l1 &amp; l2</text>
</g>
<!-- 5&#45;&gt;4 -->
<g id="edge18" class="edge"><title>5&#45;&gt;4</title>
<path fill="none" stroke="black" d="M275.768,-85.2026C269.212,-81.494 261.536,-77.8787 254,-76 234.594,-71.162 228.385,-71.0777 209,-76 204.137,-77.2348 199.219,-79.296 194.668,-81.6161"/>
<polygon fill="black" stroke="black" points="188.311,-85.1343 192.91,-78.9885 191.374,-83.4394 194.436,-81.7445 194.436,-81.7445 194.436,-81.7445 191.374,-83.4394 195.961,-84.5006 188.311,-85.1343 188.311,-85.1343"/>
<text text-anchor="start" x="209" y="-79.8" font-family="Lato" font-size="14.00">!l1 &amp; l2</text>
</g>
<!-- 5&#45;&gt;2 -->
<g id="edge17" class="edge"><title>5&#45;&gt;2</title>
<path fill="none" stroke="black" d="M314.287,-86.7668C320.809,-83.2799 328.193,-79.4045 335,-76 356.517,-65.2389 364.075,-66.4824 384,-53 391.115,-48.1854 398.193,-42.0293 404.251,-36.2265"/>
<polygon fill="black" stroke="black" points="409.5,-31.0452 406.731,-38.2046 407.009,-33.504 404.518,-35.9628 404.518,-35.9628 404.518,-35.9628 407.009,-33.504 402.305,-33.721 409.5,-31.0452 409.5,-31.0452"/>
<text text-anchor="start" x="335" y="-79.8" font-family="Lato" font-size="14.00">!l1 &amp; !l2</text>
</g>
</g>
</svg>
